<svg xmlns="http://www.w3.org/2000/svg" width="128" height="128" viewBox="0 0 512 512">
  <defs>
    <linearGradient id="g" x1="0" y1="0" x2="1" y2="1">
      <stop offset="0%" stop-color="#d1784b"/>
      <stop offset="100%" stop-color="#7c4525"/>
    </linearGradient>
  </defs>
  <rect width="512" height="512" rx="96" fill="url(#g)"/>
  <rect x="40" y="40" width="432" height="432" rx="80" fill="rgba(255,255,255,0.12)"/>
  <g fill="none" stroke="#ffffff" stroke-width="18" stroke-linecap="round" stroke-linejoin="round">
    <path d="M120 168h122c30 0 52 16 52 38v176c-18-18-40-28-72-28H120z"/>
    <path d="M392 168H270c-30 0-52 16-52 38v176c18-18 40-28 72-28h102z"/>
  </g>
  <g fill="#ffffff">
    <rect x="330" y="100" width="18" height="160" rx="9"/>
    <rect x="348" y="100" width="96" height="16" rx="8"/>
    <circle cx="339" cy="278" r="28"/>
  </g>
</svg>
