<svg xmlns="http://www.w3.org/2000/svg" width="512" height="512" viewBox="0 0 512 512">
  <defs>
    <linearGradient id="mainGradient" x1="0%" y1="0%" x2="100%" y2="100%">
      <stop offset="0%" style="stop-color:#3FB1FF;stop-opacity:1" />
      <stop offset="50%" style="stop-color:#00D1FF;stop-opacity:1" />
      <stop offset="100%" style="stop-color:#007BFF;stop-opacity:1" />
    </linearGradient>
    <filter id="glow" x="-20%" y="-20%" width="140%" height="140%">
      <feGaussianBlur stdDeviation="15" result="blur" />
      <feComposite in="SourceGraphic" in2="blur" operator="over" />
    </filter>
  </defs>
  <!-- Background -->
  <rect width="512" height="512" rx="110" fill="#0D1117"/>
  <rect x="20" y="20" width="472" height="472" rx="100" fill="url(#mainGradient)" opacity="0.9"/>
  
  <!-- Abstract Book Shape -->
  <path d="M120 180 C 120 150, 180 150, 256 180 C 332 150, 392 150, 392 180 V 380 C 392 410, 332 410, 256 380 C 180 410, 120 410, 120 380 Z" fill="white" filter="url(#glow)"/>
  
  <!-- Center Line (Spine) -->
  <path d="M256 180 V 380" stroke="#0D1117" stroke-width="4" stroke-linecap="round"/>
  
  <!-- Stylized Musical Note -->
  <g transform="translate(256, 260) scale(1.2)">
    <path d="M0 0 V 40" stroke="#0D1117" stroke-width="8" stroke-linecap="round"/>
    <circle cx="-12" cy="40" r="15" fill="#0D1117"/>
    <path d="M0 5 L 25 -5" stroke="#0D1117" stroke-width="8" stroke-linecap="round"/>
  </g>
  
  <!-- Subtle Sparkles (AI touch) -->
  <circle cx="150" cy="150" r="8" fill="white" opacity="0.6"/>
  <circle cx="360" cy="130" r="6" fill="white" opacity="0.4"/>
  <circle cx="400" cy="300" r="10" fill="white" opacity="0.5"/>
</svg>
